HIERARCHY
ROOT ui
{
	 OFFSET 0 0 0
	 CHANNELS 3 XPosition YPosition Z Position
	 EndSite
	 {
	 OFFSET 0 -1 0
	 }
}
ROOT li
{
	 OFFSET 0 0 0
	 CHANNELS 3 XPosition YPosition Z Position
	 EndSite
	 {
	 OFFSET 0 -1 0
	 }
}
ROOT ul
{
	 OFFSET 0 0 0
	 CHANNELS 3 XPosition YPosition Z Position
	 EndSite
	 {
	 OFFSET 0 -1 0
	 }
}
ROOT ll
{
	 OFFSET 0 0 0
	 CHANNELS 3 XPosition YPosition Z Position
	 EndSite
	 {
	 OFFSET 0 -1 0
	 }
}
ROOT tt
{
	 OFFSET 0 0 0
	 CHANNELS 3 XPosition YPosition Z Position
	 EndSite
	 {
	 OFFSET 0 -1 0
	 }
}
ROOT tb
{
	 OFFSET 0 0 0
	 CHANNELS 3 XPosition YPosition Z Position
	 EndSite
	 {
	 OFFSET 0 -1 0
	 }
}
ROOT td
{
	 OFFSET 0 0 0
	 CHANNELS 3 XPosition YPosition Z Position
	 EndSite
	 {
	 OFFSET 0 -1 0
	 }
}
ROOT v
{
	 OFFSET 0 0 0
	 CHANNELS 3 XPosition YPosition Z Position
	 EndSite
	 {
	 OFFSET 0 -1 0
	 }
}
ROOT bn
{
	 OFFSET 0 0 0
	 CHANNELS 3 XPosition YPosition Z Position
	 EndSite
	 {
	 OFFSET 0 -1 0
	 }
}
MOTION
Frames: 16
Frame Time: 0.002
8.231289982795715E-4	-3.8159498572349547E-4	0		0.5396763916015626	-2.419294921875	0		-0.9796621704101562	-0.03314741897583008	0		-0.718390869140625	-2.256581298828125	0		1.6074229736328125	-0.683485595703125	0		3.32793994140625	-0.09191205596923828	0		4.7719384765625	-0.020928028106689454	0		5.59480859375	0.12381359100341797	0		-0.17803680419921875	5.9413134765625	0		
-0.0030302000045776367	-0.0034471750259399414	0		0.5109082641601562	-2.418041748046875	0		-0.9794779663085937	-0.033276634216308595	0		-0.7311001586914062	-2.25054541015625	0		1.6485880126953125	-0.686090087890625	0		3.33302490234375	-0.10004351806640625	0		4.7782216796875	-0.013053262710571289	0		5.589103515625	0.1328492431640625	0		-0.21199476623535157	5.93661962890625	0		
-0.008694817543029785	0.008509933471679687	0		0.5401122436523438	-2.419512451171875	0		-0.9792920532226562	-0.03340673828125	0		-0.7678560180664062	-2.24821142578125	0		1.6047613525390625	-0.687635986328125	0		3.328311767578125	-0.09205268096923828	0		4.78819482421875	-0.03022740364074707	0		5.5852001953125	0.12585980987548828	0		-0.2118909606933594	5.9365	0		
-0.0026616220474243164	-0.003678769111633301	0		0.4863937072753906	-2.413948974609375	0		-0.975071533203125	-0.030584577560424805	0		-0.742781982421875	-2.259646728515625	0		1.61391552734375	-0.69084130859375	0		3.33339599609375	-0.10018505859375	0		4.7663798828125	-0.030005199432373047	0		5.5894560546875	0.1317686767578125	0		-0.19567581176757812	5.9451826171875	0		
0.004590116977691651	0.002122944116592407	0		0.5466219482421875	-2.41279931640625	0		-0.9708441162109375	-0.026757654190063478	0		-0.74842626953125	-2.247693115234375	0		1.6232379150390626	-0.6800444946289063	0		3.34477294921875	-0.08439188385009766	0		4.78081787109375	-0.009231678009033203	0		5.59371875	0.1386779022216797	0		-0.19458538818359375	5.94405712890625	0		
-0.008164421081542968	0.008179133415222167	0		0.48096246337890625	-2.4010791015625	0		-0.97472314453125	-0.030824092864990233	0		-0.6892463989257812	-2.249539306640625	0		1.6493394775390624	-0.6864522094726563	0		3.32098291015625	-0.08115895843505859	0		4.7879130859375	-0.01536574935913086	0		5.58491259765625	0.14075157165527344	0		-0.16337713623046876	5.952564453125	0		
0.001883458971977234	-0.0010417699813842773	0		0.5409225463867188	-2.419913818359375	0		-0.9785993041992187	-0.03388292694091797	0		-0.7541171264648437	-2.253838134765625	0		1.605486328125	-0.6879848022460937	0		3.3170703125	-0.08716815185546875	0		4.77909912109375	-0.013296673774719239	0		5.5858603515625	0.12370723724365235	0		-0.1774329833984375	5.9406396484375	0		
-0.002004159927368164	-0.004081472873687744	0		0.51413818359375	-2.416662841796875	0		-0.97844970703125	-0.03398342514038086	0		-0.6830472412109375	-2.262815185546875	0		1.643578369140625	-0.69352685546875	0		3.326195068359375	-0.08933184814453125	0		4.7772236328125	-0.015307658195495606	0		5.58113232421875	0.13374156188964845	0		-0.2114097137451172	5.9359697265625	0		
-0.007717979907989502	0.007910586833953858	0		0.5143023071289062	-2.416738525390625	0		-0.974275390625	-0.031125410079956055	0		-0.7517556762695312	-2.25205078125	0		1.61171337890625	-0.6941934814453125	0		3.331518310546875	-0.07443897247314453	0		4.79324853515625	-0.024532899856567383	0		5.58614404296875	0.12366158294677734	0		-0.23028805541992187	5.94012109375	0		
0.00533127498626709	0.001677204966545105	0		0.5185042724609376	-2.412855224609375	0		-0.9741504516601562	-0.031209722518920898	0		-0.676647705078125	-2.256059814453125	0		1.6499420166015626	-0.68671826171875	0		3.31553369140625	-0.08327446746826171	0		4.7815595703125	-0.009402653694152833	0		5.59036572265625	0.13160369873046876	0		-0.16210191345214844	5.950203125	0		
0.0024064750671386717	-0.0013505020141601563	0		0.5145982666015625	-2.41686376953125	0		-0.9780747680664063	-0.034237693786621094	0		-0.7514638061523438	-2.25220703125	0		1.6470137939453124	-0.6907247314453125	0		3.34563232421875	-0.08466743469238282	0		4.78859716796875	-0.015492155075073242	0		5.59048828125	0.13261058044433593	0		-0.1620665283203125	5.95013623046875	0		
-0.007382079124450684	0.00771397876739502	0		0.541694580078125	-2.42024755859375	0		-0.9779746704101563	-0.03431046295166015	0		-0.6804226684570313	-2.26015234375	0		1.6410377197265624	-0.6976840209960937	0		3.324722412109375	-0.08541693115234375	0		4.79358544921875	-0.024540559768676758	0		5.60057275390625	0.13151173400878907	0		-0.044903507232666014	5.96163037109375	0		
-0.008529006958007812	-0.011325369834899903	0		0.487888671875	-2.414626220703125	0		-0.9778867797851563	-0.03438005447387695	0		-0.7552666625976563	-2.257292724609375	0		1.6411368408203124	-0.6977091674804687	0		3.330835205078125	-0.08348758697509766	0		4.78878466796875	-0.01545124340057373	0		5.586560546875	0.12372695922851562	0		-0.17717852783203125	5.941205078125	0		
0.002669569969177246	-0.001510776996612549	0		0.5170079345703125	-2.41502294921875	0		-0.9737733764648437	-0.031496988296508786	0		-0.7510869140625	-2.252405517578125	0		1.6092161865234376	-0.6983336181640625	0		3.324888671875	-0.08540019989013672	0		4.78276318359375	-0.023336030960083007	0		5.590732421875	0.13173287963867186	0		-0.19517562866210938	5.9443740234375	0		
0.005773313045501709	0.00140618097782135	0		0.49624740600585937	-2.404801513671875	0		-1.044651123046875	-0.026690305709838866	0		-0.74692626953125	-2.248515869140625	0		1.612345947265625	-0.6943848876953125	0		3.36715087890625	-0.06989746856689454	0		4.7909775390625	-0.011386340141296386	0		5.59488232421875	0.1387481231689453	0		-0.17911712646484376	5.953126953125	0		
0.002796833038330078	-0.0015996600389480591	0		0.5442051391601562	-2.41742236328125	0		-0.977681396484375	-0.03457561492919922	0		-0.7139092407226563	-2.255978271484375	0		1.641381103515625	-0.6977508544921875	0		3.323178955078125	-0.07233272552490234	0		4.78408740234375	-0.007247300148010254	0		5.596755859375	0.12379438018798829	0		-0.1773364715576172	5.940056640625	0		
